<?xml version="1.0" encoding="UTF-8"?>
<!DOCTYPE svg PUBLIC "-//W3C//DTD SVG 1.1//EN" "http://www.w3.org/Graphics/SVG/1.1/DTD/svg11.dtd">
<!-- Creator: CorelDRAW X6 -->
<svg xmlns="http://www.w3.org/2000/svg" xml:space="preserve" width="101mm" height="297mm" version="1.1" style="shape-rendering:geometricPrecision; text-rendering:geometricPrecision; image-rendering:optimizeQuality; fill-rule:evenodd; clip-rule:evenodd"
viewBox="0 0 10100 29700"
 xmlns:xlink="http://www.w3.org/1999/xlink">
 <defs>
  <style type="text/css">
   <![CDATA[
    .fil0 {fill:#FEFEFE}
   ]]>
  </style>
 </defs>
 <g id="Layer_x0020_1">
  <metadata id="CorelCorpID_0Corel-Layer"/>
  <path class="fil0" d="M-2440 -11l14965 0 0 29760 -14965 0 0 -29760zm2509 16207l936 -8254c0,0 440,-2259 4184,-2160 0,0 3205,-194 3971,2131l922 8510c35,324 -897,1149 -1535,142l-678 -6680c0,0 -197,-255 -197,312l-101 5831 338 8077 27 0 -1 0 179 4521c-272,1084 -1859,831 -1928,153l-480 -4679 28 0 -658 -6462 -658 6464 27 0 -476 4687c-69,677 -1709,1030 -1981,-54l179 -4628 27 0 325 -8280 -89 -6005c0,0 -184,-269 -234,106 -50,376 -637,6246 -680,6572 -43,326 -1370,683 -1448,-303l2 -1 -1 0zm7435 -13308c0,-1334 -1081,-2415 -2415,-2415 -1334,0 -2415,1081 -2415,2415 0,1334 1081,2415 2415,2415 1334,0 2415,-1081 2415,-2415z"/>
 </g>
</svg>
